<mxfile host="app.diagrams.net" modified="2022-08-21T16:32:52.806Z" agent="5.0 (Macintosh; Intel Mac OS X 10_15_7) AppleWebKit/537.36 (KHTML, like Gecko) Chrome/104.0.0.0 Safari/537.36" etag="U03aScTEgJ0I6PCzQSwp" version="20.2.4" type="github">
  <diagram id="R2lEEEUBdFMjLlhIrx00" name="Page-1">
    <mxGraphModel dx="1796" dy="1745" grid="0" gridSize="10" guides="1" tooltips="1" connect="1" arrows="0" fold="1" page="1" pageScale="1" pageWidth="850" pageHeight="1100" math="0" shadow="0" extFonts="Permanent Marker^https://fonts.googleapis.com/css?family=Permanent+Marker">
      <root>
        <mxCell id="0" />
        <mxCell id="1" parent="0" />
        <mxCell id="53bzHX-p5R-SyWbMZXZX-1" value="Products" style="rounded=1;whiteSpace=wrap;html=1;fillColor=#d5e8d4;strokeColor=#82b366;arcSize=50;" vertex="1" parent="1">
          <mxGeometry x="349" y="117" width="120" height="60" as="geometry" />
        </mxCell>
        <mxCell id="53bzHX-p5R-SyWbMZXZX-2" value="Cost" style="ellipse;whiteSpace=wrap;html=1;fillColor=#d5e8d4;strokeColor=#82b366;" vertex="1" parent="1">
          <mxGeometry x="376" y="11" width="66" height="35" as="geometry" />
        </mxCell>
        <mxCell id="53bzHX-p5R-SyWbMZXZX-3" value="Sold Count" style="ellipse;whiteSpace=wrap;html=1;fillColor=#d5e8d4;strokeColor=#82b366;" vertex="1" parent="1">
          <mxGeometry x="528" y="15" width="66" height="35" as="geometry" />
        </mxCell>
        <mxCell id="53bzHX-p5R-SyWbMZXZX-4" value="Currency" style="ellipse;whiteSpace=wrap;html=1;fillColor=#d5e8d4;strokeColor=#82b366;" vertex="1" parent="1">
          <mxGeometry x="306" y="11" width="66" height="35" as="geometry" />
        </mxCell>
        <mxCell id="53bzHX-p5R-SyWbMZXZX-5" value="Description" style="ellipse;whiteSpace=wrap;html=1;fillColor=#d5e8d4;strokeColor=#82b366;" vertex="1" parent="1">
          <mxGeometry x="236" y="13" width="66" height="35" as="geometry" />
        </mxCell>
        <mxCell id="53bzHX-p5R-SyWbMZXZX-6" value="Name" style="ellipse;whiteSpace=wrap;html=1;fillColor=#d5e8d4;strokeColor=#82b366;" vertex="1" parent="1">
          <mxGeometry x="166" y="15" width="66" height="35" as="geometry" />
        </mxCell>
        <mxCell id="53bzHX-p5R-SyWbMZXZX-7" value="" style="endArrow=none;html=1;rounded=0;entryX=0.5;entryY=1;entryDx=0;entryDy=0;fillColor=#d5e8d4;strokeColor=#82b366;exitX=0.925;exitY=0.092;exitDx=0;exitDy=0;exitPerimeter=0;" edge="1" parent="1" source="53bzHX-p5R-SyWbMZXZX-1" target="53bzHX-p5R-SyWbMZXZX-3">
          <mxGeometry width="50" height="50" relative="1" as="geometry">
            <mxPoint x="468" y="123" as="sourcePoint" />
            <mxPoint x="518" y="73" as="targetPoint" />
          </mxGeometry>
        </mxCell>
        <mxCell id="53bzHX-p5R-SyWbMZXZX-8" value="" style="endArrow=none;html=1;rounded=0;exitX=0.5;exitY=1;exitDx=0;exitDy=0;fillColor=#d5e8d4;strokeColor=#82b366;entryX=0.117;entryY=0.108;entryDx=0;entryDy=0;entryPerimeter=0;" edge="1" parent="1" source="53bzHX-p5R-SyWbMZXZX-6" target="53bzHX-p5R-SyWbMZXZX-1">
          <mxGeometry width="50" height="50" relative="1" as="geometry">
            <mxPoint x="244" y="162" as="sourcePoint" />
            <mxPoint x="354" y="120" as="targetPoint" />
          </mxGeometry>
        </mxCell>
        <mxCell id="53bzHX-p5R-SyWbMZXZX-9" value="" style="endArrow=none;html=1;rounded=0;exitX=0.5;exitY=1;exitDx=0;exitDy=0;entryX=0.25;entryY=0;entryDx=0;entryDy=0;fillColor=#d5e8d4;strokeColor=#82b366;" edge="1" parent="1" source="53bzHX-p5R-SyWbMZXZX-5" target="53bzHX-p5R-SyWbMZXZX-1">
          <mxGeometry width="50" height="50" relative="1" as="geometry">
            <mxPoint x="267" y="60" as="sourcePoint" />
            <mxPoint x="359" y="127" as="targetPoint" />
          </mxGeometry>
        </mxCell>
        <mxCell id="53bzHX-p5R-SyWbMZXZX-10" value="" style="endArrow=none;html=1;rounded=0;exitX=0.5;exitY=1;exitDx=0;exitDy=0;entryX=0.5;entryY=0;entryDx=0;entryDy=0;fillColor=#d5e8d4;strokeColor=#82b366;" edge="1" parent="1" source="53bzHX-p5R-SyWbMZXZX-2" target="53bzHX-p5R-SyWbMZXZX-1">
          <mxGeometry width="50" height="50" relative="1" as="geometry">
            <mxPoint x="342" y="60" as="sourcePoint" />
            <mxPoint x="389" y="127" as="targetPoint" />
          </mxGeometry>
        </mxCell>
        <mxCell id="53bzHX-p5R-SyWbMZXZX-11" value="" style="endArrow=none;html=1;rounded=0;exitX=0.5;exitY=1;exitDx=0;exitDy=0;entryX=0.375;entryY=0.017;entryDx=0;entryDy=0;fillColor=#d5e8d4;strokeColor=#82b366;entryPerimeter=0;" edge="1" parent="1" source="53bzHX-p5R-SyWbMZXZX-4" target="53bzHX-p5R-SyWbMZXZX-1">
          <mxGeometry width="50" height="50" relative="1" as="geometry">
            <mxPoint x="419" y="60" as="sourcePoint" />
            <mxPoint x="419" y="127" as="targetPoint" />
          </mxGeometry>
        </mxCell>
        <mxCell id="53bzHX-p5R-SyWbMZXZX-12" value="Image" style="ellipse;whiteSpace=wrap;html=1;fillColor=#d5e8d4;strokeColor=#82b366;" vertex="1" parent="1">
          <mxGeometry x="604" y="15" width="66" height="35" as="geometry" />
        </mxCell>
        <mxCell id="53bzHX-p5R-SyWbMZXZX-13" value="ID" style="ellipse;whiteSpace=wrap;html=1;fillColor=#d5e8d4;strokeColor=#82b366;" vertex="1" parent="1">
          <mxGeometry x="96" y="17" width="66" height="35" as="geometry" />
        </mxCell>
        <mxCell id="53bzHX-p5R-SyWbMZXZX-14" value="" style="endArrow=none;html=1;rounded=0;exitX=0.5;exitY=1;exitDx=0;exitDy=0;entryX=0;entryY=0.25;entryDx=0;entryDy=0;fillColor=#d5e8d4;strokeColor=#82b366;" edge="1" parent="1" source="53bzHX-p5R-SyWbMZXZX-13" target="53bzHX-p5R-SyWbMZXZX-1">
          <mxGeometry width="50" height="50" relative="1" as="geometry">
            <mxPoint x="192" y="61" as="sourcePoint" />
            <mxPoint x="345" y="129" as="targetPoint" />
          </mxGeometry>
        </mxCell>
        <mxCell id="53bzHX-p5R-SyWbMZXZX-15" value="" style="endArrow=none;html=1;rounded=0;exitX=0.5;exitY=1;exitDx=0;exitDy=0;entryX=1;entryY=0.25;entryDx=0;entryDy=0;fillColor=#d5e8d4;strokeColor=#82b366;" edge="1" parent="1" source="53bzHX-p5R-SyWbMZXZX-12" target="53bzHX-p5R-SyWbMZXZX-1">
          <mxGeometry width="50" height="50" relative="1" as="geometry">
            <mxPoint x="459" y="143" as="sourcePoint" />
            <mxPoint x="625" y="225" as="targetPoint" />
          </mxGeometry>
        </mxCell>
        <mxCell id="53bzHX-p5R-SyWbMZXZX-18" value="" style="edgeStyle=orthogonalEdgeStyle;rounded=0;orthogonalLoop=1;jettySize=auto;html=1;endArrow=oval;endFill=1;fillColor=#dae8fc;strokeColor=#6c8ebf;" edge="1" parent="1" source="53bzHX-p5R-SyWbMZXZX-16" target="53bzHX-p5R-SyWbMZXZX-17">
          <mxGeometry relative="1" as="geometry" />
        </mxCell>
        <mxCell id="53bzHX-p5R-SyWbMZXZX-17" value="Cat ID" style="ellipse;whiteSpace=wrap;html=1;rounded=1;fillColor=#dae8fc;strokeColor=#6c8ebf;" vertex="1" parent="1">
          <mxGeometry x="-5" y="58" width="90" height="38" as="geometry" />
        </mxCell>
        <mxCell id="53bzHX-p5R-SyWbMZXZX-16" value="Categorie&#39;s products" style="rounded=1;whiteSpace=wrap;html=1;fillColor=#dae8fc;strokeColor=#6c8ebf;arcSize=50;" vertex="1" parent="1">
          <mxGeometry x="96" y="117" width="120" height="60" as="geometry" />
        </mxCell>
        <mxCell id="53bzHX-p5R-SyWbMZXZX-21" value="" style="edgeStyle=orthogonalEdgeStyle;rounded=0;orthogonalLoop=1;jettySize=auto;html=1;endArrow=oval;endFill=1;fillColor=#dae8fc;strokeColor=#6c8ebf;" edge="1" parent="1">
          <mxGeometry relative="1" as="geometry">
            <mxPoint x="95" y="159" as="sourcePoint" />
            <mxPoint x="31" y="180" as="targetPoint" />
          </mxGeometry>
        </mxCell>
        <mxCell id="53bzHX-p5R-SyWbMZXZX-22" value="Cat. name" style="ellipse;whiteSpace=wrap;html=1;rounded=1;fillColor=#dae8fc;strokeColor=#6c8ebf;" vertex="1" parent="1">
          <mxGeometry y="177" width="90" height="38" as="geometry" />
        </mxCell>
        <mxCell id="53bzHX-p5R-SyWbMZXZX-23" value="contiene" style="rhombus;whiteSpace=wrap;html=1;" vertex="1" parent="1">
          <mxGeometry x="249" y="121.63" width="61" height="50.75" as="geometry" />
        </mxCell>
        <mxCell id="53bzHX-p5R-SyWbMZXZX-25" value="" style="endArrow=classic;html=1;rounded=0;" edge="1" parent="1">
          <mxGeometry width="50" height="50" relative="1" as="geometry">
            <mxPoint x="310" y="147" as="sourcePoint" />
            <mxPoint x="349" y="146.51" as="targetPoint" />
          </mxGeometry>
        </mxCell>
        <mxCell id="53bzHX-p5R-SyWbMZXZX-28" value="" style="endArrow=classic;html=1;rounded=0;" edge="1" parent="1">
          <mxGeometry width="50" height="50" relative="1" as="geometry">
            <mxPoint x="214" y="147" as="sourcePoint" />
            <mxPoint x="249" y="147" as="targetPoint" />
          </mxGeometry>
        </mxCell>
        <mxCell id="53bzHX-p5R-SyWbMZXZX-30" value="Related products" style="ellipse;whiteSpace=wrap;html=1;fillColor=#d5e8d4;strokeColor=#82b366;" vertex="1" parent="1">
          <mxGeometry x="452" y="11" width="66" height="35" as="geometry" />
        </mxCell>
        <mxCell id="53bzHX-p5R-SyWbMZXZX-31" value="" style="endArrow=none;html=1;rounded=0;fillColor=#d5e8d4;strokeColor=#82b366;exitX=0.75;exitY=0;exitDx=0;exitDy=0;entryX=0.5;entryY=1;entryDx=0;entryDy=0;" edge="1" parent="1" source="53bzHX-p5R-SyWbMZXZX-1" target="53bzHX-p5R-SyWbMZXZX-30">
          <mxGeometry width="50" height="50" relative="1" as="geometry">
            <mxPoint x="392" y="128" as="sourcePoint" />
            <mxPoint x="480" y="70" as="targetPoint" />
          </mxGeometry>
        </mxCell>
        <mxCell id="53bzHX-p5R-SyWbMZXZX-32" value="" style="endArrow=none;html=1;rounded=0;fillColor=#d5e8d4;strokeColor=#82b366;exitX=0.5;exitY=0;exitDx=0;exitDy=0;startArrow=none;" edge="1" parent="1" source="53bzHX-p5R-SyWbMZXZX-33">
          <mxGeometry width="50" height="50" relative="1" as="geometry">
            <mxPoint x="502" y="-6" as="sourcePoint" />
            <mxPoint x="483" y="-31" as="targetPoint" />
          </mxGeometry>
        </mxCell>
        <mxCell id="53bzHX-p5R-SyWbMZXZX-33" value="Image" style="ellipse;whiteSpace=wrap;html=1;fillColor=#d5e8d4;strokeColor=#82b366;" vertex="1" parent="1">
          <mxGeometry x="463" y="-46" width="44" height="24" as="geometry" />
        </mxCell>
        <mxCell id="53bzHX-p5R-SyWbMZXZX-36" value="" style="endArrow=none;html=1;rounded=0;fillColor=#d5e8d4;strokeColor=#82b366;exitX=0.5;exitY=0;exitDx=0;exitDy=0;" edge="1" parent="1" source="53bzHX-p5R-SyWbMZXZX-30" target="53bzHX-p5R-SyWbMZXZX-33">
          <mxGeometry width="50" height="50" relative="1" as="geometry">
            <mxPoint x="485" y="11" as="sourcePoint" />
            <mxPoint x="483" y="-31" as="targetPoint" />
          </mxGeometry>
        </mxCell>
        <mxCell id="53bzHX-p5R-SyWbMZXZX-37" value="Name" style="ellipse;whiteSpace=wrap;html=1;fillColor=#d5e8d4;strokeColor=#82b366;" vertex="1" parent="1">
          <mxGeometry x="408" y="-48" width="44" height="26" as="geometry" />
        </mxCell>
        <mxCell id="53bzHX-p5R-SyWbMZXZX-38" value="ID" style="ellipse;whiteSpace=wrap;html=1;fillColor=#d5e8d4;strokeColor=#82b366;" vertex="1" parent="1">
          <mxGeometry x="518" y="-47" width="44" height="24" as="geometry" />
        </mxCell>
        <mxCell id="53bzHX-p5R-SyWbMZXZX-40" value="" style="endArrow=none;html=1;rounded=0;fillColor=#d5e8d4;strokeColor=#82b366;exitX=1;exitY=0;exitDx=0;exitDy=0;entryX=0.5;entryY=1;entryDx=0;entryDy=0;" edge="1" parent="1" source="53bzHX-p5R-SyWbMZXZX-30" target="53bzHX-p5R-SyWbMZXZX-38">
          <mxGeometry width="50" height="50" relative="1" as="geometry">
            <mxPoint x="495" y="21" as="sourcePoint" />
            <mxPoint x="495" y="-12" as="targetPoint" />
          </mxGeometry>
        </mxCell>
        <mxCell id="53bzHX-p5R-SyWbMZXZX-41" value="" style="endArrow=none;html=1;rounded=0;fillColor=#d5e8d4;strokeColor=#82b366;exitX=0;exitY=0;exitDx=0;exitDy=0;entryX=0.5;entryY=1;entryDx=0;entryDy=0;" edge="1" parent="1" source="53bzHX-p5R-SyWbMZXZX-30" target="53bzHX-p5R-SyWbMZXZX-37">
          <mxGeometry width="50" height="50" relative="1" as="geometry">
            <mxPoint x="431.6702195683547" y="24.306250525393125" as="sourcePoint" />
            <mxPoint x="463" y="-15" as="targetPoint" />
          </mxGeometry>
        </mxCell>
        <mxCell id="53bzHX-p5R-SyWbMZXZX-43" value="Products comments" style="rounded=1;whiteSpace=wrap;html=1;fillColor=#ffe6cc;strokeColor=#d79b00;arcSize=50;" vertex="1" parent="1">
          <mxGeometry x="604" y="117" width="120" height="60" as="geometry" />
        </mxCell>
        <mxCell id="53bzHX-p5R-SyWbMZXZX-44" value="contiene" style="rhombus;whiteSpace=wrap;html=1;" vertex="1" parent="1">
          <mxGeometry x="504" y="122" width="61" height="50.37" as="geometry" />
        </mxCell>
        <mxCell id="53bzHX-p5R-SyWbMZXZX-45" value="" style="endArrow=classic;html=1;rounded=0;" edge="1" parent="1">
          <mxGeometry width="50" height="50" relative="1" as="geometry">
            <mxPoint x="565" y="146.99" as="sourcePoint" />
            <mxPoint x="604" y="146.5" as="targetPoint" />
          </mxGeometry>
        </mxCell>
        <mxCell id="53bzHX-p5R-SyWbMZXZX-46" value="" style="endArrow=classic;html=1;rounded=0;" edge="1" parent="1">
          <mxGeometry width="50" height="50" relative="1" as="geometry">
            <mxPoint x="469" y="146.99" as="sourcePoint" />
            <mxPoint x="504" y="146.99" as="targetPoint" />
          </mxGeometry>
        </mxCell>
        <mxCell id="53bzHX-p5R-SyWbMZXZX-48" value="Score" style="ellipse;whiteSpace=wrap;html=1;fillColor=#ffe6cc;strokeColor=#d79b00;" vertex="1" parent="1">
          <mxGeometry x="784" y="27" width="62" height="40" as="geometry" />
        </mxCell>
        <mxCell id="53bzHX-p5R-SyWbMZXZX-49" value="User" style="ellipse;whiteSpace=wrap;html=1;fillColor=#ffe6cc;strokeColor=#d79b00;" vertex="1" parent="1">
          <mxGeometry x="784" y="126.99" width="62" height="40" as="geometry" />
        </mxCell>
        <mxCell id="53bzHX-p5R-SyWbMZXZX-50" value="Data Time" style="ellipse;whiteSpace=wrap;html=1;fillColor=#ffe6cc;strokeColor=#d79b00;" vertex="1" parent="1">
          <mxGeometry x="784" y="177" width="62" height="40" as="geometry" />
        </mxCell>
        <mxCell id="53bzHX-p5R-SyWbMZXZX-51" value="Product" style="ellipse;whiteSpace=wrap;html=1;fillColor=#ffe6cc;strokeColor=#d79b00;" vertex="1" parent="1">
          <mxGeometry x="784" y="227" width="62" height="40" as="geometry" />
        </mxCell>
        <mxCell id="53bzHX-p5R-SyWbMZXZX-52" value="Description" style="ellipse;whiteSpace=wrap;html=1;fillColor=#ffe6cc;strokeColor=#d79b00;" vertex="1" parent="1">
          <mxGeometry x="784" y="79" width="62" height="40" as="geometry" />
        </mxCell>
        <mxCell id="53bzHX-p5R-SyWbMZXZX-53" value="" style="endArrow=none;html=1;rounded=0;fillColor=#ffe6cc;strokeColor=#d79b00;" edge="1" parent="1" source="53bzHX-p5R-SyWbMZXZX-43">
          <mxGeometry width="50" height="50" relative="1" as="geometry">
            <mxPoint x="737" y="93" as="sourcePoint" />
            <mxPoint x="787" y="43" as="targetPoint" />
          </mxGeometry>
        </mxCell>
        <mxCell id="53bzHX-p5R-SyWbMZXZX-54" value="" style="endArrow=none;html=1;rounded=0;entryX=0;entryY=0.5;entryDx=0;entryDy=0;fillColor=#ffe6cc;strokeColor=#d79b00;exitX=1;exitY=0.25;exitDx=0;exitDy=0;" edge="1" parent="1" source="53bzHX-p5R-SyWbMZXZX-43" target="53bzHX-p5R-SyWbMZXZX-52">
          <mxGeometry width="50" height="50" relative="1" as="geometry">
            <mxPoint x="724" y="118" as="sourcePoint" />
            <mxPoint x="797" y="53" as="targetPoint" />
          </mxGeometry>
        </mxCell>
        <mxCell id="53bzHX-p5R-SyWbMZXZX-55" value="" style="endArrow=none;html=1;rounded=0;entryX=0;entryY=0.5;entryDx=0;entryDy=0;exitX=1;exitY=0.5;exitDx=0;exitDy=0;fillColor=#ffe6cc;strokeColor=#d79b00;" edge="1" parent="1" source="53bzHX-p5R-SyWbMZXZX-43" target="53bzHX-p5R-SyWbMZXZX-49">
          <mxGeometry width="50" height="50" relative="1" as="geometry">
            <mxPoint x="724" y="144" as="sourcePoint" />
            <mxPoint x="784" y="108" as="targetPoint" />
          </mxGeometry>
        </mxCell>
        <mxCell id="53bzHX-p5R-SyWbMZXZX-56" value="" style="endArrow=none;html=1;rounded=0;entryX=0;entryY=0.5;entryDx=0;entryDy=0;exitX=1;exitY=0.75;exitDx=0;exitDy=0;fillColor=#ffe6cc;strokeColor=#d79b00;" edge="1" parent="1" source="53bzHX-p5R-SyWbMZXZX-43" target="53bzHX-p5R-SyWbMZXZX-50">
          <mxGeometry width="50" height="50" relative="1" as="geometry">
            <mxPoint x="734" y="142" as="sourcePoint" />
            <mxPoint x="794" y="143" as="targetPoint" />
          </mxGeometry>
        </mxCell>
        <mxCell id="53bzHX-p5R-SyWbMZXZX-58" value="" style="endArrow=none;html=1;rounded=0;entryX=0;entryY=0.5;entryDx=0;entryDy=0;exitX=0.75;exitY=1;exitDx=0;exitDy=0;fillColor=#ffe6cc;strokeColor=#d79b00;" edge="1" parent="1" source="53bzHX-p5R-SyWbMZXZX-43" target="53bzHX-p5R-SyWbMZXZX-51">
          <mxGeometry width="50" height="50" relative="1" as="geometry">
            <mxPoint x="720" y="177" as="sourcePoint" />
            <mxPoint x="780" y="210" as="targetPoint" />
          </mxGeometry>
        </mxCell>
        <mxCell id="53bzHX-p5R-SyWbMZXZX-59" value="contiene" style="rhombus;whiteSpace=wrap;html=1;" vertex="1" parent="1">
          <mxGeometry x="125.5" y="227" width="61" height="50.75" as="geometry" />
        </mxCell>
        <mxCell id="53bzHX-p5R-SyWbMZXZX-60" value="" style="endArrow=classic;html=1;rounded=0;entryX=0.5;entryY=1;entryDx=0;entryDy=0;exitX=0.5;exitY=0;exitDx=0;exitDy=0;" edge="1" parent="1" source="53bzHX-p5R-SyWbMZXZX-59" target="53bzHX-p5R-SyWbMZXZX-16">
          <mxGeometry width="50" height="50" relative="1" as="geometry">
            <mxPoint x="140" y="223.49" as="sourcePoint" />
            <mxPoint x="179" y="223" as="targetPoint" />
          </mxGeometry>
        </mxCell>
        <mxCell id="53bzHX-p5R-SyWbMZXZX-63" value="" style="endArrow=classic;html=1;rounded=0;exitX=0.5;exitY=0;exitDx=0;exitDy=0;" edge="1" parent="1" source="53bzHX-p5R-SyWbMZXZX-64" target="53bzHX-p5R-SyWbMZXZX-59">
          <mxGeometry width="50" height="50" relative="1" as="geometry">
            <mxPoint x="155.5" y="327.75" as="sourcePoint" />
            <mxPoint x="156" y="278" as="targetPoint" />
          </mxGeometry>
        </mxCell>
        <mxCell id="53bzHX-p5R-SyWbMZXZX-64" value="Categories" style="rounded=1;whiteSpace=wrap;html=1;fillColor=#f8cecc;strokeColor=#b85450;arcSize=50;" vertex="1" parent="1">
          <mxGeometry x="96" y="328" width="120" height="60" as="geometry" />
        </mxCell>
        <mxCell id="53bzHX-p5R-SyWbMZXZX-69" value="Description" style="ellipse;whiteSpace=wrap;html=1;rounded=1;fillColor=#f8cecc;strokeColor=#b85450;" vertex="1" parent="1">
          <mxGeometry x="118.5" y="442" width="75" height="38" as="geometry" />
        </mxCell>
        <mxCell id="53bzHX-p5R-SyWbMZXZX-72" value="Name" style="ellipse;whiteSpace=wrap;html=1;rounded=1;fillColor=#f8cecc;strokeColor=#b85450;" vertex="1" parent="1">
          <mxGeometry x="37" y="442" width="75" height="38" as="geometry" />
        </mxCell>
        <mxCell id="53bzHX-p5R-SyWbMZXZX-73" value="ID" style="ellipse;whiteSpace=wrap;html=1;rounded=1;fillColor=#f8cecc;strokeColor=#b85450;" vertex="1" parent="1">
          <mxGeometry x="21" y="396" width="75" height="38" as="geometry" />
        </mxCell>
        <mxCell id="53bzHX-p5R-SyWbMZXZX-74" value="Product count" style="ellipse;whiteSpace=wrap;html=1;rounded=1;fillColor=#f8cecc;strokeColor=#b85450;" vertex="1" parent="1">
          <mxGeometry x="201" y="442" width="75" height="38" as="geometry" />
        </mxCell>
        <mxCell id="53bzHX-p5R-SyWbMZXZX-75" value="IMG SRC" style="ellipse;whiteSpace=wrap;html=1;rounded=1;fillColor=#f8cecc;strokeColor=#b85450;" vertex="1" parent="1">
          <mxGeometry x="216" y="396" width="75" height="38" as="geometry" />
        </mxCell>
        <mxCell id="53bzHX-p5R-SyWbMZXZX-76" value="" style="endArrow=none;html=1;rounded=0;entryX=0;entryY=0.75;entryDx=0;entryDy=0;exitX=1;exitY=0;exitDx=0;exitDy=0;fillColor=#f8cecc;strokeColor=#b85450;" edge="1" parent="1" source="53bzHX-p5R-SyWbMZXZX-73" target="53bzHX-p5R-SyWbMZXZX-64">
          <mxGeometry width="50" height="50" relative="1" as="geometry">
            <mxPoint x="49.5" y="434" as="sourcePoint" />
            <mxPoint x="75" y="354" as="targetPoint" />
          </mxGeometry>
        </mxCell>
        <mxCell id="53bzHX-p5R-SyWbMZXZX-77" value="" style="endArrow=none;html=1;rounded=0;entryX=0.25;entryY=1;entryDx=0;entryDy=0;exitX=1;exitY=0;exitDx=0;exitDy=0;fillColor=#f8cecc;strokeColor=#b85450;" edge="1" parent="1" source="53bzHX-p5R-SyWbMZXZX-72" target="53bzHX-p5R-SyWbMZXZX-64">
          <mxGeometry width="50" height="50" relative="1" as="geometry">
            <mxPoint x="94.8379480147862" y="411.4751077761912" as="sourcePoint" />
            <mxPoint x="106" y="398" as="targetPoint" />
          </mxGeometry>
        </mxCell>
        <mxCell id="53bzHX-p5R-SyWbMZXZX-78" value="" style="endArrow=none;html=1;rounded=0;entryX=0.5;entryY=1;entryDx=0;entryDy=0;exitX=0.5;exitY=0;exitDx=0;exitDy=0;fillColor=#f8cecc;strokeColor=#b85450;" edge="1" parent="1" source="53bzHX-p5R-SyWbMZXZX-69" target="53bzHX-p5R-SyWbMZXZX-64">
          <mxGeometry width="50" height="50" relative="1" as="geometry">
            <mxPoint x="110.83794801481213" y="457.47510777617754" as="sourcePoint" />
            <mxPoint x="136" y="398" as="targetPoint" />
          </mxGeometry>
        </mxCell>
        <mxCell id="53bzHX-p5R-SyWbMZXZX-79" value="" style="endArrow=none;html=1;rounded=0;entryX=0.75;entryY=1;entryDx=0;entryDy=0;exitX=0;exitY=0;exitDx=0;exitDy=0;fillColor=#f8cecc;strokeColor=#b85450;" edge="1" parent="1" source="53bzHX-p5R-SyWbMZXZX-74" target="53bzHX-p5R-SyWbMZXZX-64">
          <mxGeometry width="50" height="50" relative="1" as="geometry">
            <mxPoint x="166" y="452" as="sourcePoint" />
            <mxPoint x="166" y="398" as="targetPoint" />
          </mxGeometry>
        </mxCell>
        <mxCell id="53bzHX-p5R-SyWbMZXZX-80" value="" style="endArrow=none;html=1;rounded=0;entryX=1;entryY=0.75;entryDx=0;entryDy=0;exitX=0;exitY=0;exitDx=0;exitDy=0;fillColor=#f8cecc;strokeColor=#b85450;" edge="1" parent="1" source="53bzHX-p5R-SyWbMZXZX-75" target="53bzHX-p5R-SyWbMZXZX-64">
          <mxGeometry width="50" height="50" relative="1" as="geometry">
            <mxPoint x="222.16205198519674" y="457.4751077761821" as="sourcePoint" />
            <mxPoint x="196" y="398" as="targetPoint" />
          </mxGeometry>
        </mxCell>
        <mxCell id="53bzHX-p5R-SyWbMZXZX-82" value="User Cart" style="rounded=1;whiteSpace=wrap;html=1;fillColor=#e1d5e7;strokeColor=#9673a6;arcSize=43;" vertex="1" parent="1">
          <mxGeometry x="349" y="328" width="120" height="60" as="geometry" />
        </mxCell>
        <mxCell id="53bzHX-p5R-SyWbMZXZX-84" value="" style="endArrow=none;html=1;rounded=0;entryX=0.5;entryY=1;entryDx=0;entryDy=0;" edge="1" parent="1" target="53bzHX-p5R-SyWbMZXZX-82">
          <mxGeometry width="50" height="50" relative="1" as="geometry">
            <mxPoint x="409" y="532" as="sourcePoint" />
            <mxPoint x="434" y="436" as="targetPoint" />
          </mxGeometry>
        </mxCell>
        <mxCell id="53bzHX-p5R-SyWbMZXZX-93" value="IMG SRC" style="ellipse;whiteSpace=wrap;html=1;rounded=1;fillColor=#f8cecc;strokeColor=#b85450;" vertex="1" parent="1">
          <mxGeometry x="416" y="409" width="75" height="38" as="geometry" />
        </mxCell>
        <mxCell id="53bzHX-p5R-SyWbMZXZX-94" value="IMG SRC" style="ellipse;whiteSpace=wrap;html=1;rounded=1;fillColor=#f8cecc;strokeColor=#b85450;" vertex="1" parent="1">
          <mxGeometry x="416" y="453" width="75" height="38" as="geometry" />
        </mxCell>
        <mxCell id="53bzHX-p5R-SyWbMZXZX-95" value="Unit cost" style="ellipse;whiteSpace=wrap;html=1;rounded=1;fillColor=#f8cecc;strokeColor=#b85450;" vertex="1" parent="1">
          <mxGeometry x="416" y="497" width="75" height="38" as="geometry" />
        </mxCell>
        <mxCell id="53bzHX-p5R-SyWbMZXZX-96" value="ID" style="ellipse;whiteSpace=wrap;html=1;rounded=1;fillColor=#f8cecc;strokeColor=#b85450;" vertex="1" parent="1">
          <mxGeometry x="328" y="409" width="75" height="38" as="geometry" />
        </mxCell>
        <mxCell id="53bzHX-p5R-SyWbMZXZX-97" value="Name" style="ellipse;whiteSpace=wrap;html=1;rounded=1;fillColor=#f8cecc;strokeColor=#b85450;" vertex="1" parent="1">
          <mxGeometry x="328" y="453" width="75" height="38" as="geometry" />
        </mxCell>
        <mxCell id="53bzHX-p5R-SyWbMZXZX-98" value="Count" style="ellipse;whiteSpace=wrap;html=1;rounded=1;fillColor=#f8cecc;strokeColor=#b85450;" vertex="1" parent="1">
          <mxGeometry x="328" y="497" width="75" height="38" as="geometry" />
        </mxCell>
        <mxCell id="53bzHX-p5R-SyWbMZXZX-99" value="Unit count" style="ellipse;whiteSpace=wrap;html=1;rounded=1;fillColor=#f8cecc;strokeColor=#b85450;" vertex="1" parent="1">
          <mxGeometry x="371.5" y="541" width="75" height="38" as="geometry" />
        </mxCell>
      </root>
    </mxGraphModel>
  </diagram>
</mxfile>
